<?xml version="1.0" encoding="UTF-8" standalone="no"?>
<svg
   xmlns:dc="http://purl.org/dc/elements/1.1/"
   xmlns:cc="http://creativecommons.org/ns#"
   xmlns:rdf="http://www.w3.org/1999/02/22-rdf-syntax-ns#"
   xmlns:svg="http://www.w3.org/2000/svg"
   xmlns="http://www.w3.org/2000/svg"
   viewBox="0 0 2880 2880"
   height="2880"
   width="2880"
   xml:space="preserve"
   id="svg2"
   version="1.1"><metadata
     id="metadata8"><rdf:RDF><cc:Work
         rdf:about=""><dc:format>image/svg+xml</dc:format><dc:type
           rdf:resource="http://purl.org/dc/dcmitype/StillImage" /></cc:Work></rdf:RDF></metadata><defs
     id="defs6" /><g
     transform="matrix(1.3333333,0,0,-1.3333333,0,2880)"
     id="g10"><g
       transform="scale(0.1)"
       id="g12"><g
         transform="scale(1.1765)"
         id="g14"><path
           id="path16"
           style="fill:#0d0d0d;fill-opacity:1;fill-rule:evenodd;stroke:none"
           d="m 16300,14704 c 0,881.4 -714.6,1596 -1596,1596 -2555.7,0 -8492.77,0 -11048.47,0 -881.47,0 -1596.04,-714.6 -1596.04,-1596 0,-2555.7 0,-8492.77 0,-11048.47 0,-881.47 714.57,-1596.04 1596.04,-1596.04 2555.7,0 8492.77,0 11048.47,0 881.4,0 1596,714.57 1596,1596.04 z m -781.1,-2484.3 H 2840.56 V 3655.53 c 0,-450.09 364.88,-814.97 814.97,-814.97 2555.7,0 8492.77,0 11048.47,0 450.1,0 814.9,364.88 814.9,814.97 z M 4791,7858.2 c -832.07,152.94 -1462.6,882.07 -1462.61,1758.47 0,246.63 0,424.53 0,424.53 0,177.6 143.99,321.5 321.59,321.5 h 2932.85 c 177.6,0 321.58,-143.9 321.58,-321.5 0,0 0,-177.9 0,-424.53 0,-879.06 -634.37,-1609.97 -1470.24,-1759.85 V 5596.86 h 596.81 c 177.49,0 321.58,-144.1 321.58,-321.58 0,-177.5 -144.09,-321.59 -321.58,-321.59 H 4201.83 l -16.55,0.42 -16.32,1.25 -16.1,2.04 -15.84,2.82 -15.56,3.59 -15.26,4.34 -14.94,5.06 -14.6,5.76 -14.25,6.43 -13.86,7.11 -13.47,7.74 -13.05,8.37 -12.6,8.96 -12.15,9.55 -11.67,10.1 -11.17,10.65 -10.65,11.17 -10.11,11.67 -9.54,12.15 -8.97,12.6 -8.36,13.05 -7.75,13.47 -7.1,13.87 -6.44,14.24 -5.76,14.6 -5.06,14.95 -4.32,15.25 -3.6,15.57 -2.83,15.83 -2.04,16.09 -1.24,16.34 -0.42,16.55 0.42,16.55 1.24,16.32 2.04,16.1 2.83,15.84 3.6,15.55 4.32,15.27 5.06,14.94 5.76,14.6 6.44,14.25 7.1,13.86 7.75,13.46 8.36,13.05 8.97,12.62 9.54,12.14 10.11,11.67 10.65,11.17 11.17,10.65 11.67,10.11 12.15,9.54 12.6,8.97 13.05,8.36 13.47,7.75 13.86,7.1 14.25,6.44 14.6,5.76 14.94,5.05 15.26,4.33 15.56,3.6 15.84,2.82 16.1,2.05 16.32,1.24 16.55,0.42 H 4791 Z m 4060.51,618.48 c 162.01,27.5 285.37,168.51 285.37,338.33 0,544.72 0,1226.19 0,1226.19 0,177.4 144.09,321.5 321.58,321.5 177.48,0 321.58,-144.1 321.58,-321.5 0,0 0,-681.47 0,-1226.19 0,-525.35 -410.72,-954.78 -928.53,-984.68 V 5275.28 c 0,-177.5 -144.09,-321.59 -321.59,-321.59 -177.48,0 -321.58,144.09 -321.58,321.59 v 2555.05 c -517.81,29.9 -928.53,459.33 -928.53,984.68 0,544.72 0,1226.19 0,1226.19 0,177.4 144.1,321.5 321.58,321.5 177.49,0 321.59,-144.1 321.59,-321.5 0,0 0,-681.47 0,-1226.19 0,-169.82 123.35,-310.83 285.36,-338.33 v 1564.52 c 0,177.4 144.1,321.5 321.58,321.5 177.5,0 321.59,-144.1 321.59,-321.5 z m 3655.59,1779.92 c -1434.1,0 -2598.42,-1164.28 -2598.42,-2598.38 0,-1434.1 1164.32,-2598.4 2598.42,-2598.4 1434.1,0 2598.4,1164.3 2598.4,2598.4 0,1434.1 -1164.3,2598.38 -2598.4,2598.38 z m 0,-643.14 c 1079.1,0 1955.2,-876.12 1955.2,-1955.24 0,-1079.12 -876.1,-1955.23 -1955.2,-1955.23 -1079.1,0 -1955.3,876.11 -1955.3,1955.23 0,1079.12 876.2,1955.24 1955.3,1955.24 z m 0,-823.26 c -624.8,0 -1132,-507.23 -1132,-1131.98 0,-624.76 507.2,-1131.98 1132,-1131.98 624.7,0 1132,507.22 1132,1131.98 0,624.75 -507.3,1131.98 -1132,1131.98 z m 0,-643.17 c 269.8,0 488.8,-219.03 488.8,-488.81 0,-269.78 -219,-488.81 -488.8,-488.81 -269.8,0 -488.8,219.03 -488.8,488.81 0,269.78 219,488.81 488.8,488.81 z M 5116.41,8471.8 v 0.03 c 632.27,0 1144.83,512.56 1144.83,1144.84 v 102.9 H 3971.57 v -102.9 c 0,-632.28 512.56,-1144.84 1144.83,-1144.84 z M 15518.9,13000.7 V 14704 c 0,450.1 -364.8,814.9 -814.9,814.9 -2555.7,0 -8492.77,0 -11048.47,0 -450.09,0 -814.97,-364.8 -814.97,-814.9 V 13000.7 Z M 4957.06,14259.8 c 0,-331 -268.79,-599.8 -599.86,-599.8 -331.07,0 -599.87,268.8 -599.87,599.8 0,331.1 268.8,599.9 599.87,599.9 331.07,0 599.86,-268.8 599.86,-599.9 z m 1919.63,0 c 0,-331 -268.79,-599.8 -599.87,-599.8 -331.07,0 -599.86,268.8 -599.86,599.8 0,331.1 268.79,599.9 599.86,599.9 331.08,0 599.87,-268.8 599.87,-599.9" /></g></g></g></svg>