<?xml version="1.0" encoding="UTF-8" standalone="no"?>
<svg
   xmlns:dc="http://purl.org/dc/elements/1.1/"
   xmlns:cc="http://creativecommons.org/ns#"
   xmlns:rdf="http://www.w3.org/1999/02/22-rdf-syntax-ns#"
   xmlns:svg="http://www.w3.org/2000/svg"
   xmlns="http://www.w3.org/2000/svg"
   viewBox="0 0 1333.3333 1333.3333"
   height="1333.3333"
   width="1333.3333"
   xml:space="preserve"
   id="svg2"
   version="1.1"><metadata
     id="metadata8"><rdf:RDF><cc:Work
         rdf:about=""><dc:format>image/svg+xml</dc:format><dc:type
           rdf:resource="http://purl.org/dc/dcmitype/StillImage" /></cc:Work></rdf:RDF></metadata><defs
     id="defs6" /><g
     transform="matrix(1.3333333,0,0,-1.3333333,0,1333.3333)"
     id="g10"><g
       transform="scale(0.1)"
       id="g12"><path
         id="path14"
         style="fill:#f5f69f;fill-opacity:1;fill-rule:nonzero;stroke:none"
         d="M 6243.76,4998.34 C 5891.31,4334.52 4704,4275.07 3591.83,4865.57 2479.66,5456.07 1863.78,6472.9 2216.24,7136.72 2568.69,7800.55 3756.01,7859.99 4868.17,7269.5 5980.34,6679 6596.21,5662.17 6243.76,4998.34" /><path
         id="path16"
         style="fill:#d2ea82;fill-opacity:1;fill-rule:nonzero;stroke:none"
         d="m 6792.07,4465.94 c -56.65,0 -112.44,1.97 -167.08,5.82 40.36,449.93 -58.51,838.92 -289.17,1062.85 -20.8,180.56 -86.21,369.57 -190.64,557.89 213.29,106.71 466.4,185.46 742.56,222.86 116.79,15.82 231.7,23.42 342.99,23.42 693.74,0 1251.46,-294.72 1310.3,-729.25 68.3,-504.24 -561.18,-1005.75 -1405.97,-1120.17 -116.79,-15.82 -231.7,-23.42 -342.99,-23.42" /><path
         id="path18"
         style="fill:#c6e452;fill-opacity:1;fill-rule:nonzero;stroke:none"
         d="m 6335.82,5534.61 c -51.23,49.74 -108.95,91.33 -173.1,123.64 -101.68,51.22 -212.38,75.58 -328.49,75.58 -59.52,0 -120.42,-6.4 -182.2,-18.9 116.5,143.98 286.07,273.97 493.15,377.57 104.43,-188.32 169.84,-377.33 190.64,-557.89" /><path
         id="path20"
         style="fill:#ceeffa;fill-opacity:1;fill-rule:nonzero;stroke:none"
         d="m 4779.89,2185.31 c -116.1,0 -226.81,24.36 -328.48,75.58 -559.96,282.06 -630.81,1271.25 -158.25,2209.4 16.21,32.18 32.82,63.82 49.86,95.03 260.62,-71.2 513.91,-106.49 747.89,-106.49 322.34,0 608.03,67.05 825.18,199.5 192.81,-101.8 437.15,-167.45 708.9,-186.57 C 6596.06,4149.33 6495.63,3795.62 6320.96,3448.85 5934.21,2681.05 5303.22,2185.31 4779.89,2185.31" /><path
         id="path22"
         style="fill:#bfe6a2;fill-opacity:1;fill-rule:nonzero;stroke:none"
         d="m 5090.91,4458.83 c -233.98,0 -487.27,35.29 -747.89,106.49 343.32,628.71 850.32,1056.81 1309.01,1149.61 -130.57,-161.38 -194.56,-340.38 -170.26,-519.74 30.14,-222.58 191.14,-408.46 434.32,-536.86 -217.15,-132.45 -502.84,-199.5 -825.18,-199.5" /><path
         id="path24"
         style="fill:#a9dd84;fill-opacity:1;fill-rule:nonzero;stroke:none"
         d="m 6624.99,4471.76 c -271.75,19.12 -516.09,84.77 -708.9,186.57 140.9,85.94 253.02,199.42 327.67,340.01 85.79,161.59 114.21,344.1 92.06,536.27 230.66,-223.93 329.53,-612.92 289.17,-1062.85" /><path
         id="path26"
         style="fill:#9dd754;fill-opacity:1;fill-rule:nonzero;stroke:none"
         d="m 5916.09,4658.33 c -243.18,128.4 -404.18,314.28 -434.32,536.86 -24.3,179.36 39.69,358.36 170.26,519.74 61.78,12.5 122.68,18.9 182.2,18.9 116.11,0 226.81,-24.36 328.49,-75.58 64.15,-32.31 121.87,-73.9 173.1,-123.64 22.15,-192.17 -6.27,-374.68 -92.06,-536.27 -74.65,-140.59 -186.77,-254.07 -327.67,-340.01" /><path
         id="path28"
         style="fill:#211d1d;fill-opacity:1;fill-rule:nonzero;stroke:none"
         d="m 1610.88,4998.8 464.4,-0.01 c 42.04,0 78.48,29.11 87.77,70.11 60.68,267.69 165.39,520.73 311.24,752.08 22.42,35.56 17.24,81.91 -12.49,111.64 l -328.18,328.18 661.21,661.21 328.18,-328.18 c 29.72,-29.74 76.08,-34.92 111.63,-12.5 231.36,145.86 484.39,250.57 752.08,311.25 41,9.29 70.11,45.73 70.11,87.77 v 464.4 h 935.09 v -464.4 c 0,-42.04 29.11,-78.48 70.11,-87.77 168.75,-38.25 332.84,-94.55 489.3,-167.8 l -423.77,-422.62 c -674.34,229.23 -1426.16,54.73 -1930.27,-452.7 -719.08,-723.81 -721.61,-1903.94 -5.66,-2630.7 352.64,-357.96 823.44,-556.13 1325.7,-558.02 2.42,0 4.8,-0.01 7.22,-0.01 499.6,0.01 969.03,194.41 1322.48,547.86 258.04,258.04 433.73,582.45 508.09,938.15 68.44,327.43 48.41,665.27 -57.57,980.87 l 423.98,422.81 c 71.48,-154.14 126.57,-315.61 164.17,-481.51 9.29,-41 45.73,-70.11 87.77,-70.11 h 464.4 v -935.09 h -464.4 c -42.04,0 -78.48,-29.11 -87.77,-70.11 -60.68,-267.68 -165.39,-520.72 -311.24,-752.08 -22.42,-35.56 -17.23,-81.91 12.49,-111.63 l 328.18,-328.19 -661.2,-661.2 -328.19,328.17 c -29.72,29.73 -76.07,34.93 -111.63,12.5 -231.36,-145.85 -484.4,-250.57 -752.08,-311.24 -41,-9.3 -70.11,-45.74 -70.11,-87.78 v -464.39 h -935.09 v 464.39 c 0,42.04 -29.11,78.48 -70.11,87.78 -267.67,60.67 -520.71,165.38 -752.08,311.24 -35.57,22.43 -81.91,17.23 -111.63,-12.5 l -328.18,-328.17 -661.21,661.2 328.18,328.18 c 29.72,29.73 34.91,76.07 12.49,111.63 -145.85,231.37 -250.57,484.41 -311.24,752.09 -9.29,41 -45.73,70.11 -87.77,70.11 h -464.4 z m -90,-1115.09 h 483.53 c 60.99,-238.45 154.93,-465.47 280.01,-676.65 l -341.71,-341.72 c -35.16,-35.14 -35.16,-92.13 0,-127.27 l 788.48,-788.49 c 35.15,-35.15 92.13,-35.15 127.28,0 l 341.71,341.71 c 211.19,-125.07 438.2,-219.01 676.65,-280.01 v -483.52 c 0,-49.71 40.29,-90 90,-90 h 1115.09 c 49.71,0 90,40.29 90,90 v 483.52 c 238.46,61 465.47,154.94 676.65,280.01 l 341.72,-341.71 c 35.14,-35.15 92.13,-35.15 127.27,0 l 788.49,788.49 c 35.15,35.14 35.15,92.13 0,127.27 l -341.72,341.72 c 125.08,211.18 219.02,438.19 280.01,676.65 h 483.53 c 49.71,0 90,40.29 90,90 V 5088.8 c 0,49.71 -40.29,90 -90,90 h -483.54 c -50.3,196.35 -123.53,386.35 -218.12,565.71 -13.32,25.27 -37.85,42.71 -66.09,47 -28.25,4.28 -56.84,-5.08 -77.07,-25.26 l -552.79,-551.26 -1.51,-1.68 c -1.29,-1.35 -2.56,-2.71 -3.75,-4.14 -0.87,-1.02 -1.67,-2.07 -2.48,-3.13 -0.93,-1.21 -1.85,-2.42 -2.72,-3.67 -0.9,-1.32 -1.75,-2.66 -2.59,-4.01 -0.65,-1.07 -1.3,-2.12 -1.9,-3.21 -0.86,-1.54 -1.65,-3.08 -2.41,-4.65 -0.49,-1.02 -0.98,-2.04 -1.43,-3.07 -0.71,-1.61 -1.35,-3.24 -1.96,-4.87 -0.41,-1.11 -0.81,-2.23 -1.18,-3.36 -0.51,-1.55 -0.96,-3.11 -1.38,-4.68 -0.35,-1.3 -0.68,-2.6 -0.96,-3.91 -0.32,-1.42 -0.59,-2.84 -0.83,-4.27 -0.26,-1.51 -0.48,-3.01 -0.66,-4.54 -0.15,-1.27 -0.27,-2.55 -0.36,-3.83 -0.13,-1.64 -0.21,-3.29 -0.24,-4.95 -0.03,-1.23 -0.02,-2.46 0.01,-3.68 0.04,-1.65 0.1,-3.3 0.23,-4.96 0.1,-1.33 0.25,-2.66 0.42,-3.99 0.18,-1.49 0.37,-2.98 0.63,-4.47 0.27,-1.58 0.62,-3.16 0.98,-4.74 0.28,-1.21 0.55,-2.42 0.88,-3.63 0.51,-1.88 1.12,-3.72 1.75,-5.57 l 0.63,-1.99 c 229.08,-618.01 76.12,-1318.32 -389.67,-1784.12 -319.47,-319.46 -743.68,-495.14 -1195.23,-495.14 -2.16,0 -4.36,0.01 -6.53,0.01 -453.92,1.71 -879.43,180.81 -1198.14,504.34 -647.04,656.81 -644.75,1723.37 5.12,2377.52 468.03,471.12 1172.31,624.79 1794.3,391.46 l 2.16,-0.69 c 1.78,-0.62 3.57,-1.21 5.39,-1.71 1.25,-0.35 2.5,-0.63 3.75,-0.92 1.54,-0.36 3.08,-0.71 4.64,-0.98 1.51,-0.27 3.01,-0.47 4.52,-0.66 1.32,-0.16 2.64,-0.32 3.98,-0.43 1.64,-0.13 3.28,-0.2 4.93,-0.24 1.24,-0.03 2.48,-0.05 3.73,-0.03 1.63,0.03 3.25,0.11 4.87,0.23 1.31,0.09 2.62,0.2 3.93,0.35 1.49,0.18 2.96,0.39 4.43,0.63 1.47,0.25 2.93,0.52 4.39,0.83 1.26,0.28 2.51,0.59 3.76,0.92 1.64,0.43 3.25,0.9 4.86,1.41 1.06,0.35 2.12,0.73 3.17,1.11 1.7,0.62 3.39,1.28 5.05,2.01 0.98,0.42 1.94,0.88 2.9,1.34 1.63,0.78 3.24,1.59 4.83,2.48 1.03,0.57 2.04,1.18 3.04,1.79 1.42,0.86 2.82,1.74 4.2,2.69 1.2,0.82 2.36,1.7 3.52,2.58 1.11,0.85 2.22,1.69 3.3,2.59 1.38,1.15 2.7,2.38 4.01,3.62 l 1.8,1.62 552.55,551.03 c 20.21,20.16 29.67,48.72 25.47,76.96 -4.2,28.24 -21.55,52.82 -46.76,66.22 -181.73,96.67 -374.43,171.34 -573.78,222.4 v 483.54 c 0,49.7 -40.29,90 -90,90 H 3966.83 c -49.71,0 -90,-40.3 -90,-90 v -483.53 c -238.46,-60.99 -465.47,-154.93 -676.65,-280.01 l -341.71,341.71 c -16.88,16.88 -39.77,26.37 -63.64,26.37 -23.87,0 -46.76,-9.49 -63.64,-26.37 l -788.48,-788.48 c -35.16,-35.15 -35.16,-92.13 0,-127.28 l 341.71,-341.72 C 2159.34,5644.27 2065.4,5417.25 2004.41,5178.79 l -483.53,0.01 c -23.86,0 -46.76,-9.48 -63.63,-26.36 -16.88,-16.88 -26.37,-39.77 -26.37,-63.64 V 3973.71 c 0,-23.88 9.49,-46.77 26.37,-63.64 16.87,-16.88 39.77,-26.36 63.63,-26.36" /><path
         id="path30"
         style="fill:#211d1d;fill-opacity:1;fill-rule:nonzero;stroke:none"
         d="m 8383.98,7260.66 -670.35,-658.75 c -127.54,-127.18 -303.4,-189.28 -482.54,-170.35 -262.47,27.72 -517.95,-61.11 -701.05,-243.7 L 5554.6,5215.11 c -183.1,-182.59 -272.62,-437.87 -245.63,-700.38 18.43,-179.16 -44.15,-354.87 -172.13,-482.51 l -687.1,-694.95 c -4.26,-4.29 -9.12,-5.19 -12.45,-5.2 -3.47,-0.37 -8.2,0.89 -12.45,5.14 l -4.36,4.38 c -31.34,31.43 -31.28,82.5 0.15,113.85 l 52.98,52.82 c 268.34,267.61 268.94,703.64 1.34,971.99 -129.64,129.99 -302.14,201.72 -485.72,201.98 h -0.98 c -183.21,0 -355.54,-71.24 -485.3,-200.64 l -52.97,-52.82 c -15.2,-15.16 -35.38,-23.5 -56.84,-23.5 h -0.2 c -21.53,0.05 -41.75,8.5 -56.92,23.78 -6.71,6.76 -6.56,17.94 0.46,25.04 l 534.33,542.43 c 155.31,154.87 370.03,234.98 589.06,219.8 243.27,-16.85 483.74,74.02 659.6,249.39 l 1161.18,1157.98 v 0 c 175.85,175.36 267.41,415.53 251.21,658.9 -14.58,219.1 66.13,433.58 220.83,587.86 l 517.58,506.57 c 7,6.89 18.17,7 24.92,0.28 15.23,-15.22 23.62,-35.46 23.62,-57 -0.01,-21.53 -8.41,-41.76 -23.66,-56.97 l -25.92,-25.85 c -268.35,-267.61 -268.96,-703.65 -1.34,-971.99 267.6,-268.36 703.63,-268.96 971.99,-1.34 l 25.92,25.85 c 31.44,31.35 82.51,31.25 113.83,-0.14 l 4.36,-4.38 c 4.26,-4.27 5.14,-9.15 5.13,-12.48 -0.02,-3.33 -0.94,-8.2 -5.14,-12.34 z m 123.12,156.28 c -101.42,101.71 -266.69,101.94 -368.41,0.51 l -25.92,-25.85 c -198.08,-197.52 -519.91,-197.08 -717.43,0.99 -197.52,198.07 -197.08,519.91 0.99,717.43 l 25.92,25.85 c 49.35,49.21 76.53,114.69 76.56,184.37 0.02,69.69 -27.13,135.18 -76.43,184.42 -76.34,76.23 -201.18,76.55 -278.17,0.85 L 6626.19,7998.5 c -192.12,-191.59 -291.97,-456.88 -273.93,-727.86 12.74,-191.5 -59.68,-380.85 -198.71,-519.5 L 4992.37,5593.16 c -139.04,-138.65 -328.57,-210.61 -520.05,-197.27 -270.91,18.74 -536.49,-80.32 -729.18,-272.49 l -534.77,-542.88 c -76.06,-76.92 -76.08,-201.77 -0.07,-278.31 49.11,-49.45 114.53,-76.77 184.21,-76.94 h 0.65 c 69.44,0 134.74,27 183.92,76.05 l 52.97,52.82 c 198.08,197.53 519.91,197.08 717.44,-0.99 197.52,-198.07 197.08,-519.91 -0.99,-717.44 l -52.96,-52.81 c -101.72,-101.44 -101.94,-266.7 -0.53,-368.39 l 4.36,-4.38 c 37.34,-37.44 87.01,-58.06 139.88,-58.06 h 0.32 c 52.99,0.08 102.72,20.86 140.09,58.57 l 686.72,694.58 c 166.14,165.67 247.66,394.55 223.65,627.93 -21.42,208.29 49.17,410.4 193.67,554.51 l 975.44,972.75 c 144.52,144.11 346.82,214.14 555.05,192.14 233.32,-24.66 462.41,56.24 628.07,221.44 l 669.98,658.38 c 37.74,37.2 58.65,86.87 58.88,139.86 0.22,52.99 -20.26,102.84 -57.66,140.33 l -4.36,4.38" /><path
         id="path32"
         style="fill:#211d1d;fill-opacity:1;fill-rule:nonzero;stroke:none"
         d="m 6962.9,7214.36 c -35.15,35.14 -92.12,35.14 -127.28,-0.01 -35.15,-35.15 -35.14,-92.13 0.01,-127.27 l 320.3,-320.31 c 17.58,-17.58 40.61,-26.36 63.64,-26.36 23.03,0 46.06,8.79 63.64,26.36 35.15,35.15 35.15,92.13 0,127.28 l -320.31,320.31" /><path
         id="path34"
         style="fill:#211d1d;fill-opacity:1;fill-rule:nonzero;stroke:none"
         d="m 4620.35,4910.14 c -35.14,35.14 -92.12,35.14 -127.28,-0.01 -35.15,-35.14 -35.14,-92.13 0.01,-127.27 l 320.3,-320.31 c 17.58,-17.57 40.61,-26.36 63.64,-26.36 23.03,0 46.07,8.79 63.64,26.36 35.15,35.15 35.15,92.13 0,127.28 l -320.31,320.31" /></g></g></svg>