<?xml version="1.0" encoding="UTF-8" standalone="no"?>
<svg
   xmlns:dc="http://purl.org/dc/elements/1.1/"
   xmlns:cc="http://creativecommons.org/ns#"
   xmlns:rdf="http://www.w3.org/1999/02/22-rdf-syntax-ns#"
   xmlns:svg="http://www.w3.org/2000/svg"
   xmlns="http://www.w3.org/2000/svg"
   viewBox="0 0 1333.3333 1333.3333"
   height="1333.3333"
   width="1333.3333"
   xml:space="preserve"
   id="svg2"
   version="1.1"><metadata
     id="metadata8"><rdf:RDF><cc:Work
         rdf:about=""><dc:format>image/svg+xml</dc:format><dc:type
           rdf:resource="http://purl.org/dc/dcmitype/StillImage" /></cc:Work></rdf:RDF></metadata><defs
     id="defs6" /><g
     transform="matrix(1.3333333,0,0,-1.3333333,0,1333.3333)"
     id="g10"><g
       transform="scale(0.1)"
       id="g12"><path
         id="path14"
         style="fill:#211d1d;fill-opacity:1;fill-rule:nonzero;stroke:none"
         d="M 7612.19,8183.68 V 1816.32 c 0,-109.73 -89.27,-199.01 -199,-199.01 H 2586.81 c -109.73,0 -199,89.28 -199,199.01 v 6367.36 c 0,109.73 89.27,199.01 199,199.01 h 4826.38 c 109.73,0 199,-89.28 199,-199.01 z m -5025.38,399.01 c -220.01,0 -399,-179 -399,-399.01 V 1816.32 c 0,-220.01 178.99,-399.01 399,-399.01 h 4826.38 c 220.01,0 399,179 399,399.01 v 6367.36 c 0,220.01 -178.99,399.01 -399,399.01 H 2586.81" /><path
         id="path16"
         style="fill:#211d1d;fill-opacity:1;fill-rule:nonzero;stroke:none"
         d="m 7216.2,2074.9 c 0,-37.93 -30.86,-68.79 -68.79,-68.79 H 2852.59 c -37.93,0 -68.79,30.86 -68.79,68.79 v 243.68 h 4432.4 z m 100,443.68 H 2683.8 c -55.23,0 -100,-44.77 -100,-100 V 2074.9 c 0,-148.21 120.58,-268.79 268.79,-268.79 h 4294.82 c 148.21,0 268.79,120.58 268.79,268.79 v 343.68 c 0,55.23 -44.77,100 -100,100" /><path
         id="path18"
         style="fill:#211d1d;fill-opacity:1;fill-rule:nonzero;stroke:none"
         d="M 7216.2,2861.65 H 2783.8 V 6952.4 h 4432.4 z m 100,4290.75 H 2683.8 c -55.23,0 -100,-44.77 -100,-100 V 2761.65 c 0,-55.23 44.77,-100 100,-100 h 4632.4 c 55.23,0 100,44.77 100,100 V 7052.4 c 0,55.23 -44.77,100 -100,100" /><path
         id="path20"
         style="fill:#211d1d;fill-opacity:1;fill-rule:nonzero;stroke:none"
         d="M 7316.2,7541.04 H 2683.8 c -55.23,0 -100,-44.77 -100,-100 0,-55.22 44.77,-100 100,-100 h 4632.4 c 55.23,0 100,44.78 100,100 0,55.23 -44.77,100 -100,100" /><path
         id="path22"
         style="fill:#211d1d;fill-opacity:1;fill-rule:nonzero;stroke:none"
         d="m 6747.82,8062.58 c 58.44,0 105.99,-47.55 105.99,-105.99 0,-58.44 -47.55,-105.99 -105.99,-105.99 -58.44,0 -105.99,47.55 -105.99,105.99 0,58.44 47.55,105.99 105.99,105.99 z m 0,-411.98 c 168.72,0 305.99,137.27 305.99,305.99 0,168.72 -137.27,305.99 -305.99,305.99 -168.72,0 -305.99,-137.27 -305.99,-305.99 0,-168.72 137.27,-305.99 305.99,-305.99" /><path
         id="path24"
         style="fill:#211d1d;fill-opacity:1;fill-rule:nonzero;stroke:none"
         d="m 5876.17,8062.58 c 58.44,0 105.99,-47.55 105.99,-105.99 0,-58.44 -47.55,-105.99 -105.99,-105.99 -58.45,0 -105.99,47.55 -105.99,105.99 0,58.44 47.54,105.99 105.99,105.99 z m 0,-411.98 c 168.72,0 305.99,137.27 305.99,305.99 0,168.72 -137.27,305.99 -305.99,305.99 -168.72,0 -305.99,-137.27 -305.99,-305.99 0,-168.72 137.27,-305.99 305.99,-305.99" /><path
         id="path26"
         style="fill:#211d1d;fill-opacity:1;fill-rule:nonzero;stroke:none"
         d="m 5004.52,8062.58 c 58.44,0 105.98,-47.55 105.98,-105.99 0,-58.44 -47.54,-105.99 -105.98,-105.99 -58.45,0 -105.99,47.55 -105.99,105.99 0,58.44 47.54,105.99 105.99,105.99 z m 0,-411.98 c 168.72,0 305.98,137.27 305.98,305.99 0,168.72 -137.26,305.99 -305.98,305.99 -168.73,0 -305.99,-137.27 -305.99,-305.99 0,-168.72 137.26,-305.99 305.99,-305.99" /><path
         id="path28"
         style="fill:#211d1d;fill-opacity:1;fill-rule:nonzero;stroke:none"
         d="m 4132.86,8062.58 c 58.44,0 105.99,-47.55 105.99,-105.99 0,-58.44 -47.55,-105.99 -105.99,-105.99 -58.44,0 -105.98,47.55 -105.98,105.99 0,58.44 47.54,105.99 105.98,105.99 z m 0,-411.98 c 168.72,0 305.99,137.27 305.99,305.99 0,168.72 -137.27,305.99 -305.99,305.99 -168.72,0 -305.98,-137.27 -305.98,-305.99 0,-168.72 137.26,-305.99 305.98,-305.99" /><path
         id="path30"
         style="fill:#211d1d;fill-opacity:1;fill-rule:nonzero;stroke:none"
         d="m 3261.21,8062.58 c 58.44,0 105.99,-47.55 105.99,-105.99 0,-58.44 -47.55,-105.99 -105.99,-105.99 -58.45,0 -105.99,47.55 -105.99,105.99 0,58.44 47.54,105.99 105.99,105.99 z m 0,-411.98 c 168.72,0 305.99,137.27 305.99,305.99 0,168.72 -137.27,305.99 -305.99,305.99 -168.72,0 -305.99,-137.27 -305.99,-305.99 0,-168.72 137.27,-305.99 305.99,-305.99" /><path
         id="path32"
         style="fill:#211d1d;fill-opacity:1;fill-rule:nonzero;stroke:none"
         d="M 3155.95,4779.18 H 6866.33 V 3309.34 H 3155.95 Z m 0,1669.84 H 6866.33 V 4979.18 H 3155.95 Z m -100,-3339.68 h 3910.38 c 55.23,0 100,44.77 100,100 v 3339.68 c 0,55.23 -44.77,100 -100,100 H 3055.95 c -55.23,0 -100,-44.77 -100,-100 V 3209.34 c 0,-55.23 44.77,-100 100,-100" /><path
         id="path34"
         style="fill:#211d1d;fill-opacity:1;fill-rule:nonzero;stroke:none"
         d="M 5539.57,6279.12 H 4482.71 c -55.23,0 -100,-44.77 -100,-100 0,-55.23 44.77,-100 100,-100 h 1056.86 c 55.22,0 100,44.77 100,100 0,55.23 -44.78,100 -100,100" /></g></g></svg>