<svg width="2739" height="4001" viewBox="0 0 2739 4001" fill="none" xmlns="http://www.w3.org/2000/svg">
<g clip-path="url(#clip0_2_2)">
<path d="M1874.35 109.389H109.381V1462.89H1121.87C1135.33 1261.29 1222.64 1079.89 1356.99 945.536C1491.33 811.18 1672.75 723.892 1874.35 710.42V109.389ZM54.6918 -0.00952972H1929.02C1959.24 -0.00952972 1983.72 24.4811 1983.72 54.6897V763.278C1983.72 793.462 1959.24 817.953 1929.02 817.953C1735.82 817.953 1560.91 896.284 1434.32 1022.86C1307.72 1149.46 1229.41 1324.38 1229.41 1517.58C1229.41 1547.79 1204.92 1572.27 1174.72 1572.27H54.6918C24.4896 1572.27 0 1547.79 0 1517.58V54.6897C0 24.4811 24.4896 -0.00952972 54.6918 -0.00952972Z" fill="black"/>
<path d="M1929.03 3823.76H54.6919C24.4897 3823.76 0 3799.27 0 3769.07V1517.57C0 1487.37 24.4897 1462.89 54.6919 1462.89H1174.72C1204.93 1462.89 1229.42 1487.37 1229.42 1517.57C1229.42 1710.78 1307.73 1885.7 1434.33 2012.29C1560.91 2138.87 1735.83 2217.19 1929.03 2217.19C1959.24 2217.19 1983.72 2241.69 1983.72 2271.89V3769.07C1983.72 3799.27 1959.24 3823.76 1929.03 3823.76ZM109.382 3714.37H1874.35V2324.75C1672.75 2311.28 1491.34 2223.96 1356.99 2089.62C1222.64 1955.26 1135.33 1773.86 1121.87 1572.26H109.382V3714.37Z" fill="black"/>
<path d="M456.666 391.838C456.666 361.637 432.176 337.142 401.974 337.142C371.772 337.142 347.283 361.637 347.283 391.838V1180.43C347.283 1210.64 371.772 1235.13 401.974 1235.13C432.176 1235.13 456.666 1210.64 456.666 1180.43V391.838Z" fill="black"/>
<path d="M456.666 1797.58C456.666 1767.38 432.177 1742.9 401.976 1742.9C371.773 1742.9 347.284 1767.38 347.284 1797.58V2586.19C347.284 2616.38 371.773 2640.86 401.976 2640.86C432.177 2640.86 456.666 2616.38 456.666 2586.19V1797.58Z" fill="black"/>
<path d="M1591.65 3823.76H1483.55V3890.63H1591.65V3823.76ZM1428.85 3714.37H1646.35C1676.55 3714.37 1701.03 3738.87 1701.03 3769.07V3945.32C1701.03 3975.52 1676.55 4000.01 1646.35 4000.01H1428.85C1398.65 4000.01 1374.16 3975.52 1374.16 3945.32V3769.07C1374.16 3738.87 1398.65 3714.37 1428.85 3714.37Z" fill="black"/>
<path d="M500.18 3823.76H392.072V3890.63H500.18V3823.76ZM337.381 3714.37H554.871C585.072 3714.37 609.561 3738.87 609.561 3769.07V3945.32C609.561 3975.52 585.072 4000.01 554.871 4000.01H337.381C307.18 4000.01 282.691 3975.52 282.691 3945.32V3769.07C282.691 3738.87 307.18 3714.37 337.381 3714.37Z" fill="black"/>
<path d="M2423.72 1022.87C2297.13 896.279 2122.24 817.971 1929.02 817.971C1735.82 817.971 1560.9 896.279 1434.32 1022.87C1307.72 1149.46 1229.41 1324.39 1229.41 1517.57C1229.41 1710.8 1307.72 1885.71 1434.32 2012.3C1560.9 2138.89 1735.82 2217.21 1929.02 2217.21C2122.24 2217.21 2297.13 2138.89 2423.72 2012.3C2550.33 1885.71 2628.64 1710.8 2628.64 1517.57C2628.64 1324.39 2550.33 1149.46 2423.72 1022.87ZM1929.02 708.587C2152.41 708.587 2354.66 799.152 2501.06 945.549C2647.46 1091.95 2738.02 1294.2 2738.02 1517.57C2738.02 1740.96 2647.46 1943.22 2501.06 2089.63C2354.66 2236.03 2152.41 2326.59 1929.02 2326.59C1705.64 2326.59 1503.38 2236.03 1356.98 2089.63C1210.58 1943.22 1120.03 1740.96 1120.03 1517.57C1120.03 1294.2 1210.58 1091.95 1356.98 945.549C1503.38 799.152 1705.64 708.587 1929.02 708.587Z" fill="black"/>
<path d="M1983.72 985.937C1983.72 955.739 1959.25 931.245 1929.03 931.245C1898.83 931.245 1874.35 955.739 1874.35 985.937V1517.57C1874.35 1547.78 1898.83 1572.26 1929.03 1572.26C1959.25 1572.26 1983.72 1547.78 1983.72 1517.57V985.937Z" fill="black"/>
<path d="M2127.18 1047.6C2148.54 1026.24 2148.54 991.611 2127.18 970.272C2105.82 948.914 2071.21 948.914 2049.85 970.272L1929.02 1091.08L1808.2 970.272C1786.85 948.914 1752.22 948.914 1730.88 970.272C1709.52 991.611 1709.52 1026.24 1730.88 1047.6L1889.7 1206.4L1890.35 1207.08C1911.71 1228.44 1946.34 1228.44 1967.7 1207.08V1207.06L2127.18 1047.6Z" fill="black"/>
<path d="M2175.51 1236.71C2196.86 1215.36 2196.86 1180.74 2175.51 1159.39C2154.15 1138.04 2119.53 1138.04 2098.16 1159.39L1929.02 1328.54L1759.87 1159.39C1738.51 1138.04 1703.9 1138.04 1682.54 1159.39C1661.2 1180.74 1661.2 1215.36 1682.54 1236.71L1889.69 1443.87L1890.36 1444.53C1911.69 1465.88 1946.34 1465.88 1967.7 1444.53H1967.69L2175.51 1236.71Z" fill="black"/>
<path d="M1874.35 2049.23C1874.35 2079.42 1898.83 2103.91 1929.03 2103.91C1959.24 2103.91 1983.72 2079.42 1983.72 2049.23V1517.57C1983.72 1487.37 1959.24 1462.89 1929.03 1462.89C1898.83 1462.89 1874.35 1487.37 1874.35 1517.57V2049.23Z" fill="black"/>
<path d="M2049.86 2064.9C2071.21 2086.24 2105.84 2086.24 2127.19 2064.9C2148.54 2043.54 2148.54 2008.93 2127.19 1987.57L1967.7 1828.08H1967.71C1946.34 1806.73 1911.71 1806.73 1890.37 1828.08L1889.71 1828.76L1730.88 1987.57C1709.52 2008.93 1709.52 2043.54 1730.88 2064.9C1752.23 2086.24 1786.85 2086.24 1808.21 2064.9L1929.03 1944.07L2049.86 2064.9Z" fill="black"/>
<path d="M2098.18 1875.77C2119.55 1897.12 2154.18 1897.12 2175.51 1875.77C2196.87 1854.41 2196.87 1819.79 2175.51 1798.45L1967.69 1590.63L1967.71 1590.61C1946.35 1569.27 1911.71 1569.27 1890.37 1590.61L1889.72 1591.3L1682.55 1798.45C1661.21 1819.79 1661.21 1854.41 1682.55 1875.77C1703.91 1897.12 1738.53 1897.12 1759.89 1875.77L1929.04 1706.62L2098.18 1875.77Z" fill="black"/>
<path d="M2460.69 1572.26C2490.88 1572.26 2515.38 1547.78 2515.38 1517.57C2515.38 1487.37 2490.88 1462.89 2460.69 1462.89H1929.03C1898.83 1462.89 1874.35 1487.37 1874.35 1517.57C1874.35 1547.78 1898.83 1572.26 1929.03 1572.26H2460.69Z" fill="black"/>
<path d="M2399.02 1715.74C2420.38 1737.09 2454.99 1737.09 2476.36 1715.74C2497.71 1694.37 2497.71 1659.76 2476.36 1638.41L2355.54 1517.57L2476.36 1396.76C2497.71 1375.41 2497.71 1340.78 2476.36 1319.43C2454.99 1298.08 2420.38 1298.08 2399.02 1319.43L2240.22 1478.25L2239.54 1478.91C2218.19 1500.26 2218.19 1534.89 2239.54 1556.26V1556.24L2399.02 1715.74Z" fill="black"/>
<path d="M2209.9 1764.05C2231.26 1785.41 2265.88 1785.41 2287.23 1764.05C2308.59 1742.7 2308.59 1708.08 2287.23 1686.72L2118.08 1517.57L2287.23 1348.44C2308.59 1327.08 2308.59 1292.45 2287.23 1271.11C2265.88 1249.75 2231.26 1249.75 2209.9 1271.11L2002.75 1478.26L2002.08 1478.91C1980.71 1500.26 1980.71 1534.9 2002.08 1556.26V1556.24L2209.9 1764.05Z" fill="black"/>
<path d="M1397.39 1462.89C1367.19 1462.89 1342.7 1487.37 1342.7 1517.57C1342.7 1547.78 1367.19 1572.26 1397.39 1572.26H1929.03C1959.24 1572.26 1983.72 1547.78 1983.72 1517.57C1983.72 1487.37 1959.24 1462.89 1929.03 1462.89H1397.39Z" fill="black"/>
<path d="M1381.7 1638.41C1360.34 1659.76 1360.34 1694.37 1381.7 1715.74C1403.05 1737.09 1437.68 1737.09 1459.02 1715.74L1618.51 1556.24V1556.26C1639.87 1534.89 1639.87 1500.26 1618.51 1478.91L1617.84 1478.25L1459.02 1319.43C1437.68 1298.08 1403.05 1298.08 1381.7 1319.43C1360.34 1340.78 1360.34 1375.41 1381.7 1396.76L1502.52 1517.57L1381.7 1638.41Z" fill="black"/>
<path d="M1570.83 1686.72C1549.47 1708.08 1549.47 1742.7 1570.83 1764.05C1592.17 1785.41 1626.8 1785.41 1648.15 1764.05L1855.97 1556.24V1556.26C1877.34 1534.9 1877.34 1500.26 1855.97 1478.91L1855.3 1478.26L1648.15 1271.11C1626.8 1249.75 1592.17 1249.75 1570.83 1271.11C1549.47 1292.45 1549.47 1327.08 1570.83 1348.44L1739.99 1517.57L1570.83 1686.72Z" fill="black"/>
</g>
<defs>
<clipPath id="clip0_2_2">
<rect width="2738.03" height="4000.01" fill="white"/>
</clipPath>
</defs>
</svg>
