<svg width="6667" height="6667" viewBox="0 0 6667 6667" fill="none" xmlns="http://www.w3.org/2000/svg">
<path d="M5380.33 5754.03H1286.34C1249.88 5754.03 1220.22 5724.36 1220.22 5687.89V2012.53H5446.46V5687.89C5446.46 5724.36 5416.8 5754.03 5380.33 5754.03ZM1286.34 912.63H5380.33C5416.8 912.63 5446.46 942.289 5446.46 978.754V1834.75H1220.22V978.754C1220.22 942.289 1249.88 912.63 1286.34 912.63ZM5380.33 734.858H1286.34C1151.85 734.858 1042.44 844.287 1042.44 978.754V5687.89C1042.44 5822.38 1151.85 5931.8 1286.34 5931.8H5380.33C5514.84 5931.8 5624.23 5822.38 5624.23 5687.89V978.754C5624.23 844.287 5514.84 734.858 5380.33 734.858Z" fill="black"/>
<path d="M4287.96 4852.39C4032.97 5107.39 3693.94 5247.81 3333.32 5247.81C2972.72 5247.81 2633.69 5107.39 2378.71 4852.39C2123.72 4597.4 1983.29 4258.37 1983.29 3897.76C1983.29 3537.15 2123.72 3198.12 2378.71 2943.14C2633.69 2688.15 2972.72 2547.71 3333.32 2547.71C3693.94 2547.71 4032.97 2688.15 4287.96 2943.14C4542.95 3198.12 4683.38 3537.15 4683.38 3897.76C4683.38 4258.37 4542.95 4597.4 4287.96 4852.39ZM3333.32 2369.94C2925.24 2369.94 2541.56 2528.87 2253 2817.43C1964.43 3106 1805.51 3489.67 1805.51 3897.76C1805.51 4305.87 1964.43 4689.53 2253 4978.09C2541.56 5266.67 2925.24 5425.59 3333.32 5425.59C3741.42 5425.59 4125.1 5266.67 4413.66 4978.09C4702.23 4689.53 4861.16 4305.87 4861.16 3897.76C4861.16 3489.67 4702.23 3106 4413.66 2817.43C4125.1 2528.87 3741.42 2369.94 3333.32 2369.94Z" fill="black"/>
<path d="M3333.34 4882.93C2790.09 4882.93 2348.16 4440.99 2348.16 3897.76C2348.16 3354.54 2790.09 2912.6 3333.34 2912.6C3876.56 2912.6 4318.5 3354.54 4318.5 3897.76C4318.5 4440.99 3876.56 4882.93 3333.34 4882.93ZM3333.34 2734.82C3022.69 2734.82 2730.65 2855.78 2511 3075.44C2291.36 3295.09 2170.39 3587.13 2170.39 3897.76C2170.39 4208.4 2291.36 4500.44 2511 4720.09C2730.65 4939.75 3022.69 5060.71 3333.34 5060.71C3643.97 5060.71 3936.01 4939.75 4155.66 4720.09C4375.32 4500.44 4496.28 4208.4 4496.28 3897.76C4496.28 3587.13 4375.32 3295.09 4155.66 3075.44C3936.01 2855.78 3643.97 2734.82 3333.34 2734.82Z" fill="black"/>
<path d="M5039.58 1319.19C5066.3 1319.19 5088.02 1340.92 5088.02 1367.6C5088.02 1394.31 5066.3 1416.04 5039.58 1416.04C5012.87 1416.04 4991.14 1394.31 4991.14 1367.6C4991.14 1340.92 5012.87 1319.19 5039.58 1319.19ZM5039.58 1593.79C5164.33 1593.79 5265.78 1492.34 5265.78 1367.6C5265.78 1242.89 5164.33 1141.4 5039.58 1141.4C4914.84 1141.4 4813.39 1242.89 4813.39 1367.6C4813.39 1492.34 4914.84 1593.79 5039.58 1593.79Z" fill="black"/>
<path d="M4210.25 1319.19C4236.93 1319.19 4258.66 1340.92 4258.66 1367.6C4258.66 1394.31 4236.93 1416.04 4210.25 1416.04C4183.54 1416.04 4161.81 1394.31 4161.81 1367.6C4161.81 1340.92 4183.54 1319.19 4210.25 1319.19ZM4210.25 1593.79C4334.96 1593.79 4436.45 1492.34 4436.45 1367.6C4436.45 1242.89 4334.96 1141.4 4210.25 1141.4C4085.51 1141.4 3984.06 1242.89 3984.06 1367.6C3984.06 1492.34 4085.51 1593.79 4210.25 1593.79Z" fill="black"/>
<path d="M1578.65 1318.42H3391.56V1416.81H1578.65V1318.42ZM1519.06 1594.59H3451.12C3516.32 1594.59 3569.3 1541.57 3569.3 1476.41V1258.82C3569.3 1193.66 3516.32 1140.64 3451.12 1140.64H1519.06C1453.89 1140.64 1400.88 1193.66 1400.88 1258.82V1476.41C1400.88 1541.57 1453.89 1594.59 1519.06 1594.59Z" fill="black"/>
</svg>
